<?xml version="1.0" encoding="UTF-8"?><svg id="Capa_1" xmlns="http://www.w3.org/2000/svg" viewBox="0 0 634.69 225.36"><defs><style>.cls-1{fill:#01404c;}.cls-2{fill:#f5ca2c;}.cls-3{fill:#02404c;}.cls-4{fill:#c88925;}.cls-5{fill:#c3882b;}.cls-6{fill:#3f5255;stroke:#3f5255;stroke-miterlimit:10;stroke-width:.18px;}.cls-7{fill:#fec708;}.cls-8{fill:#c88a21;}</style></defs><path class="cls-1" d="M376.77,89.37c.61,1.59,1.06,5.29,1.89,6.4,1.3,1.75,4.33-1.52,6.65,6.57,1.55,5.42,1.54,11.66,0,17.08-2.46,8.66-4.33,4.23-7.39,6.11-.38.24-2.25,6.98-2.97,8.53-3.56,7.66-10.3,17.33-17.18,22.32-3.65,2.65-9.75,5.21-14,7-9.1,3.13-20.91,3.14-30,0-2.78-.65-5.56-2.08-8.02-3.48-2.07-1.18-7.47-4.25-8.98-5.52-6.2-5.21-12.09-15.67-15.48-23.01-.63-1.36-1.45-5.63-1.69-5.82-.64-.52-2.74.22-4.34-1.14-4.51-3.84-4.34-22.83.05-27.02,1.03-.98,2.79-.6,3.49-1.71.72-1.15.47-4.05.97-5.29-.68-2.33-.82-4.03,2.28-4.04,30.11-.17,60.25-.1,90.36,0,2.22,0,4.45.42,4.36,3.04Z"/><path class="cls-7" d="M341.77,27.37l1.09,1.88c-.82,12.39-.66,24.74.48,37.04,7.48,6.31,10.77,1.06,10.41-6.86l.27-22.32c0-1.93.67-2.84,2.75-2.74,16.17,10.45,20.13,22.88,21,42l-3.72,1.77c-29.78-1.56-59.79-1.59-89.57,0l-3.72-1.77c-1.23-1.05-1.23-2.81,0-5.28.91-11.99,3.61-21.47,11.01-30.72,1.33-1.21,6.21-3.83,8-5,2.44-.09,2.85,1.27,2.92,3.43l-.09,20.58c-1.5,12.67,12.14,12.94,11.44.49l-.48-30.24c.3-.83,1.04-1.59,2.21-2.26,1.35-9.87,12.62-14.4,20.52-8.02,2.48,2,4.02,7.06,5.48,8.02Z"/><path class="cls-5" d="M280.77,76.37c27.58-1.87,69.4-1.84,97,0,3.48.23,7.21-.22,8.57,3.95.7,2.13.51,6.39-1.56,7.56-.35.2-7.32,1.47-8.02,1.48-.58.01-2.6-1.05-4.43-1.04-30.03.18-60.06.01-90.09-.03-1.13-.16-2.14,1.25-2.48,2.07.53-3.7-4.37-1.21-7.01-2.5-3.04-1.48-2.78-8.33,0-10.5,3.62-1.71,6.29-2.05,8-1Z"/><path class="cls-8" d="M356.77,34.37c-2.98,5.76,2.06,34.16-4.7,36.01-3.41.94-9,.39-10.54-3.27-1.81-4.32-.94-27.8-.79-34.28.04-1.89-.46-3.95,1.03-5.46,3.33,2.21,9.66,3.55,15,7Z"/><path class="cls-4" d="M315.77,27.37c-1.29,9.44,2.31,33.45-1.22,40.28-1.74,3.37-6.71,3.54-10.09,2.52-7.43-2.24-1.26-28.46-4.69-34.8.69-.45,1.26-2.1,3.29-3.2,3.58-1.94,8.83-3.19,12.71-4.8Z"/><path class="cls-7" d="M280.77,76.37c-2.4.16-5.22,1.7-8,1,4.01-3.12,6.27-.97,7.77-8.73,2.2-11.38,1.47-19.43,11.23-28.27-.77,5.48-5.66,8.56-7.49,14.01-2.3,6.84-2.11,14.95-3.51,21.99Z"/><rect class="cls-3" x="24.46" y="54.04" width="27.01" height="108.88"/><polygon class="cls-3" points="130.82 124.99 92.12 54.04 61.78 54.04 61.78 162.85 87.01 162.85 87.01 93.01 125.56 162.85 156.05 162.85 156.05 54.04 130.82 54.04 130.82 124.99"/><polygon class="cls-3" points="232.02 124.99 193.31 54.04 162.98 54.04 162.98 162.85 188.21 162.85 188.21 93.01 226.76 162.85 257.25 162.85 257.25 54.04 232.02 54.04 232.02 124.99"/><polygon class="cls-3" points="469.66 54.04 446.03 120.07 422.4 54.04 395.26 54.04 435.49 161.62 435.97 162.92 456.09 162.92 496.8 54.04 469.66 54.04"/><path class="cls-3" d="M555.52,54.04h-16.73l-46.77,108.88h28.3l6.62-16.81h40.44l6.62,16.81h28.3l-46.77-108.88ZM558.31,123.07h-22.3l11.15-28.32,11.15,28.32Z"/><path class="cls-2" d="M605.1,169.67H19.39c-.83,0-1.51-.67-1.51-1.51s.67-1.51,1.51-1.51h585.71c.83,0,1.51.67,1.51,1.51s-.67,1.51-1.51,1.51Z"/><path class="cls-6" d="M151.44,204.33c-.3,0-.54-.08-.71-.23-.16-.15-.27-.38-.32-.68l-3.35-24.78c-.03-.3.03-.53.16-.68s.31-.23.54-.23h.78c.24,0,.4.06.49.17.09.11.15.25.18.4l3.14,23.26,12.3-23.26c.05-.13.12-.25.23-.38.11-.13.28-.19.51-.19h1.06c.28,0,.46.13.53.4.07.27.04.54-.11.82l-12.97,24.47c-.16.3-.35.53-.56.68-.21.15-.48.23-.81.23h-1.09Z"/><path class="cls-6" d="M166.92,204.33c-.23,0-.41-.08-.53-.23-.12-.15-.15-.35-.11-.61l3.56-18.09c.05-.25.16-.46.33-.61.18-.15.38-.23.62-.23h.6c.23,0,.4.08.51.23.11.15.13.36.09.61l-3.56,18.09c-.05.25-.15.46-.32.61-.17.15-.37.23-.6.23h-.6ZM171.22,180.51c-.24,0-.41-.08-.51-.23s-.15-.36-.12-.61l.32-1.44c.05-.25.15-.46.32-.63s.36-.25.6-.25h1.34c.23,0,.42.08.55.25.13.17.17.38.12.63l-.32,1.44c-.03.25-.13.46-.32.61s-.4.23-.63.23h-1.34Z"/><path class="cls-6" d="M180.17,204.33c-.38,0-.63-.09-.78-.27-.14-.18-.23-.41-.28-.68l-3-17.9c-.05-.33,0-.56.16-.7s.32-.21.51-.21h.67c.21,0,.39.06.53.17.14.11.23.34.28.67l2.68,16.15,9.2-16.42c.05-.1.15-.22.3-.36s.35-.21.58-.21h.85c.21,0,.38.11.51.32s.09.5-.12.85l-9.94,17.63c-.17.28-.35.51-.55.68-.2.18-.49.27-.86.27h-.74Z"/><path class="cls-6" d="M193.6,204.33c-.23,0-.41-.08-.53-.23-.12-.15-.15-.35-.11-.61l3.56-18.09c.05-.25.16-.46.33-.61.18-.15.38-.23.62-.23h.6c.23,0,.4.08.51.23.11.15.13.36.09.61l-3.56,18.09c-.05.25-.15.46-.32.61-.17.15-.37.23-.6.23h-.6ZM197.9,180.51c-.24,0-.41-.08-.51-.23s-.15-.36-.12-.61l.32-1.44c.05-.25.15-.46.32-.63s.36-.25.6-.25h1.34c.23,0,.42.08.55.25.13.17.17.38.12.63l-.32,1.44c-.03.25-.13.46-.32.61s-.4.23-.63.23h-1.34Z"/><path class="cls-6" d="M207.91,204.71c-1.5,0-2.74-.37-3.72-1.1s-1.65-1.76-2.03-3.08c-.38-1.32-.46-2.84-.25-4.56.05-.38.13-.89.27-1.52.13-.63.24-1.14.33-1.52.47-1.72,1.15-3.24,2.04-4.56.89-1.32,1.97-2.34,3.22-3.08,1.26-.73,2.65-1.1,4.18-1.1,1.64,0,2.96.39,3.95,1.18s1.64,1.91,1.97,3.38c.33,1.47.3,3.22-.07,5.24l-.11.57c-.05.25-.17.46-.35.61-.19.15-.4.23-.63.23h-12.55c-.02.2-.05.33-.07.38-.16,1.14-.13,2.22.11,3.25.23,1.03.7,1.86,1.39,2.51.69.65,1.6.97,2.73.97,1.01,0,1.89-.16,2.63-.49.74-.33,1.34-.69,1.81-1.08.47-.39.79-.69.95-.89.28-.33.49-.53.62-.59s.32-.09.58-.09h.56c.21,0,.38.07.49.21.12.14.15.32.11.55-.09.35-.36.79-.79,1.31-.43.52-1.02,1.03-1.76,1.54-.74.51-1.59.92-2.54,1.25s-1.98.49-3.08.49ZM204.59,193.28h11.21l.04-.15c.3-1.27.33-2.41.07-3.42s-.76-1.82-1.5-2.41c-.74-.59-1.7-.89-2.87-.89s-2.23.3-3.15.89c-.93.6-1.71,1.4-2.35,2.41-.63,1.01-1.1,2.15-1.41,3.42l-.04.15Z"/><path class="cls-6" d="M220.66,204.33c-.23,0-.41-.08-.53-.23-.12-.15-.15-.35-.11-.61l3.56-18.09c.05-.25.16-.46.33-.61.18-.15.38-.23.62-.23h.6c.23,0,.4.08.51.23.11.15.13.36.09.61l-.35,1.79c.73-.89,1.61-1.61,2.64-2.17,1.03-.56,2.22-.84,3.56-.84,1.79,0,3.15.37,4.11,1.12.95.75,1.55,1.76,1.81,3.04.26,1.28.22,2.73-.11,4.35l-2.15,10.79c-.05.25-.15.46-.32.61-.17.15-.37.23-.6.23h-.6c-.23,0-.41-.08-.53-.23-.12-.15-.15-.35-.11-.61l2.08-10.6c.42-2.15.41-3.77-.04-4.86-.45-1.09-1.63-1.63-3.56-1.63s-3.44.58-4.76,1.73c-1.32,1.15-2.17,2.74-2.57,4.77l-2.08,10.6c-.05.25-.15.46-.32.61-.17.15-.37.23-.6.23h-.6Z"/><path class="cls-6" d="M247.45,204.71c-1.36,0-2.48-.27-3.35-.8s-1.52-1.24-1.96-2.13c-.44-.89-.71-1.88-.81-2.96-.11-1.09-.08-2.19.09-3.31.05-.38.11-.73.18-1.06.07-.33.15-.68.25-1.06.26-1.11.62-2.21,1.09-3.29.47-1.08,1.07-2.06,1.8-2.96.73-.9,1.62-1.62,2.66-2.15s2.27-.8,3.68-.8c1.55,0,2.74.29,3.58.87.83.58,1.45,1.29,1.85,2.13l1.8-9.01c.05-.25.15-.46.32-.61.16-.15.36-.23.6-.23h.6c.23,0,.41.08.53.23s.15.35.11.61l-5,25.31c-.05.25-.15.46-.32.61-.16.15-.36.23-.6.23h-.6c-.24,0-.41-.08-.53-.23-.12-.15-.15-.35-.11-.61l.35-1.79c-.73.86-1.56,1.58-2.48,2.15-.93.57-2.17.85-3.72.85ZM247.45,202.51c1.34,0,2.52-.34,3.54-1.03,1.02-.68,1.86-1.54,2.5-2.57.65-1.03,1.09-2.06,1.32-3.1.09-.38.2-.87.32-1.48s.21-1.1.28-1.48c.19-1.01.18-2.01-.02-3-.2-.99-.64-1.81-1.32-2.47-.68-.66-1.68-.99-3-.99s-2.37.33-3.31.99c-.94.66-1.72,1.52-2.33,2.58-.61,1.06-1.08,2.2-1.41,3.42-.09.38-.18.74-.25,1.06-.07.33-.13.68-.18,1.06-.16,1.21-.19,2.36-.07,3.42.12,1.06.48,1.93,1.09,2.58.61.66,1.55.99,2.82.99Z"/><path class="cls-6" d="M268.1,204.71c-1.62,0-2.95-.38-3.98-1.14s-1.75-1.8-2.15-3.12c-.4-1.32-.46-2.79-.18-4.41.05-.38.14-.91.28-1.6.14-.68.26-1.22.35-1.6.38-1.65.97-3.12,1.78-4.43s1.84-2.34,3.1-3.1,2.73-1.14,4.42-1.14,3.05.38,4.07,1.14,1.73,1.79,2.12,3.1c.39,1.3.44,2.78.16,4.43-.07.38-.17.91-.3,1.6-.13.68-.24,1.22-.34,1.6-.38,1.62-.97,3.09-1.78,4.41s-1.85,2.36-3.1,3.12c-1.26.76-2.74,1.14-4.46,1.14ZM268.1,202.51c1.67,0,3.17-.57,4.49-1.71,1.33-1.14,2.24-2.79,2.73-4.94.09-.38.2-.85.3-1.41.11-.56.19-1.03.26-1.41.35-2.18.16-3.83-.56-4.96s-1.93-1.69-3.59-1.69-3.13.56-4.46,1.69-2.24,2.78-2.73,4.96c-.1.38-.2.85-.32,1.41-.12.56-.2,1.03-.25,1.41-.35,2.15-.18,3.8.53,4.94.7,1.14,1.9,1.71,3.59,1.71Z"/><path class="cls-6" d="M298.98,204.71c-1.6,0-2.94-.25-4.02-.76-1.08-.51-1.92-1.23-2.52-2.17-.6-.94-.98-2.03-1.14-3.29-.17-1.25-.13-2.62.11-4.08.16-1.04.37-2.15.62-3.34.25-1.19.49-2.33.72-3.42.47-1.98,1.16-3.74,2.08-5.3.92-1.56,2.12-2.78,3.61-3.67s3.31-1.33,5.45-1.33c1.67,0,3.05.24,4.16.72,1.11.48,1.97,1.13,2.59,1.94.62.81,1.03,1.7,1.21,2.66.19.96.21,1.93.07,2.89-.02.23-.09.41-.19.55-.11.14-.26.21-.47.21h-.81c-.19,0-.36-.06-.53-.17-.16-.11-.24-.32-.21-.63.21-2.15-.24-3.67-1.34-4.56-1.11-.89-2.6-1.33-4.48-1.33-2.14,0-4,.65-5.59,1.96s-2.71,3.39-3.37,6.25c-.49,2.08-.92,4.21-1.27,6.38-.47,2.86-.24,4.95.71,6.25.94,1.31,2.48,1.96,4.62,1.96,1.88,0,3.54-.42,4.99-1.25s2.61-2.38,3.51-4.64c.12-.3.25-.51.39-.63s.3-.17.49-.17h.81c.21,0,.38.07.49.21.12.14.14.32.07.55-.26.89-.63,1.81-1.13,2.77s-1.16,1.86-1.99,2.68c-.84.82-1.88,1.49-3.12,2-1.25.51-2.75.76-4.51.76Z"/><path class="cls-6" d="M319.91,204.71c-1.62,0-2.95-.38-3.98-1.14-1.04-.76-1.75-1.8-2.15-3.12-.4-1.32-.46-2.79-.18-4.41.04-.38.14-.91.28-1.6s.26-1.22.35-1.6c.38-1.65.97-3.12,1.78-4.43s1.84-2.34,3.1-3.1c1.26-.76,2.73-1.14,4.42-1.14s3.05.38,4.07,1.14c1.02.76,1.73,1.79,2.11,3.1.39,1.3.44,2.78.16,4.43-.07.38-.17.91-.3,1.6s-.24,1.22-.33,1.6c-.38,1.62-.97,3.09-1.78,4.41s-1.84,2.36-3.1,3.12c-1.26.76-2.74,1.14-4.46,1.14ZM319.91,202.51c1.67,0,3.17-.57,4.49-1.71,1.33-1.14,2.24-2.79,2.73-4.94.09-.38.19-.85.3-1.41.11-.56.2-1.03.27-1.41.35-2.18.16-3.83-.56-4.96s-1.93-1.69-3.6-1.69-3.13.56-4.46,1.69c-1.33,1.13-2.24,2.78-2.73,4.96-.09.38-.2.85-.32,1.41-.12.56-.2,1.03-.25,1.41-.35,2.15-.18,3.8.53,4.94.71,1.14,1.9,1.71,3.6,1.71Z"/><path class="cls-6" d="M333.27,204.33c-.23,0-.41-.08-.53-.23-.12-.15-.15-.35-.11-.61l3.56-18.09c.05-.25.16-.46.33-.61.18-.15.38-.23.62-.23h.6c.23,0,.4.08.51.23.11.15.13.36.09.61l-.35,1.79c.73-.89,1.61-1.61,2.64-2.17,1.03-.56,2.22-.84,3.56-.84,1.79,0,3.15.37,4.11,1.12.95.75,1.55,1.76,1.81,3.04.26,1.28.22,2.73-.11,4.35l-2.15,10.79c-.05.25-.15.46-.32.61-.17.15-.37.23-.6.23h-.6c-.23,0-.41-.08-.53-.23-.12-.15-.15-.35-.11-.61l2.08-10.6c.42-2.15.41-3.77-.04-4.86-.45-1.09-1.63-1.63-3.56-1.63s-3.44.58-4.76,1.73c-1.32,1.15-2.17,2.74-2.57,4.77l-2.08,10.6c-.05.25-.15.46-.32.61-.17.15-.37.23-.6.23h-.6Z"/><path class="cls-6" d="M359.49,204.71c-1.22,0-2.24-.18-3.05-.53s-1.45-.78-1.92-1.27-.79-.98-.95-1.46-.23-.85-.21-1.1c.05-.28.17-.49.37-.63.2-.14.38-.21.55-.21h.53c.14,0,.26.03.37.08s.21.19.3.42c.21.43.48.84.81,1.24.33.39.78.7,1.36.93s1.33.34,2.27.34c1.41,0,2.63-.29,3.67-.87,1.03-.58,1.67-1.44,1.9-2.58.14-.71.06-1.28-.23-1.71-.29-.43-.84-.81-1.64-1.14-.8-.33-1.9-.67-3.31-1.03-1.41-.38-2.45-.84-3.12-1.37-.67-.53-1.08-1.15-1.23-1.84-.15-.7-.15-1.45.02-2.26.19-.89.59-1.75,1.22-2.6.62-.85,1.46-1.54,2.5-2.09,1.04-.54,2.27-.82,3.68-.82,1.15,0,2.1.16,2.85.49.75.33,1.34.73,1.76,1.2.42.47.71.93.86,1.39.15.46.21.82.16,1.1-.02.25-.13.46-.32.61-.19.15-.39.23-.6.23h-.53c-.19,0-.33-.04-.44-.13-.11-.09-.18-.21-.23-.36-.16-.4-.38-.79-.63-1.14-.26-.35-.64-.64-1.14-.85-.51-.22-1.23-.32-2.17-.32-1.41,0-2.52.31-3.33.93s-1.31,1.41-1.5,2.38c-.12.56-.08,1.04.12,1.46s.65.8,1.36,1.14c.71.34,1.76.7,3.17,1.08,1.43.36,2.54.79,3.31,1.31.78.52,1.28,1.13,1.5,1.84s.24,1.54.05,2.51c-.19,1.01-.63,1.95-1.34,2.81s-1.63,1.55-2.78,2.07c-1.15.52-2.49.78-4.02.78Z"/><path class="cls-6" d="M376.94,204.33c-1.53,0-2.6-.28-3.22-.84-.62-.56-.95-1.32-.99-2.28-.04-.96.06-2.04.3-3.23l2.22-11.21h-2.75c-.23,0-.41-.08-.53-.23s-.15-.35-.11-.61l.11-.53c.05-.25.16-.46.34-.61s.38-.23.62-.23h2.75l1.27-6.38c.05-.25.15-.46.32-.61s.37-.23.6-.23h.6c.23,0,.41.08.53.23s.15.35.11.61l-1.27,6.38h4.37c.23,0,.4.08.51.23s.13.36.09.61l-.11.53c-.05.25-.15.46-.32.61-.17.15-.37.23-.6.23h-4.37l-2.18,11.06c-.17.89-.28,1.65-.34,2.3-.06.65.06,1.14.35,1.48.29.34.88.51,1.74.51h2.12c.23,0,.4.08.51.23.11.15.13.35.09.61l-.11.53c-.05.25-.15.46-.32.61-.17.15-.37.23-.6.23h-1.73Z"/><path class="cls-6" d="M383.78,204.33c-.24,0-.41-.08-.53-.23-.12-.15-.15-.35-.11-.61l3.56-18.05c.05-.25.16-.46.34-.63s.38-.25.62-.25h.56c.23,0,.41.08.53.25s.15.37.11.63l-.35,1.75c.54-.89,1.27-1.54,2.19-1.98.92-.43,1.96-.65,3.14-.65h1.3c.23,0,.41.08.51.23s.13.36.09.61l-.11.53c-.05.25-.15.46-.32.61-.16.15-.36.23-.6.23h-1.52c-1.41,0-2.62.44-3.61,1.33s-1.65,2.09-1.96,3.61l-2.33,11.78c-.05.25-.16.46-.34.61-.18.15-.38.23-.62.23h-.56Z"/><path class="cls-6" d="M402.49,204.71c-1.79,0-3.15-.37-4.09-1.12-.94-.75-1.53-1.77-1.76-3.06s-.2-2.74.11-4.33l2.12-10.79c.05-.25.16-.46.34-.61.18-.15.38-.23.62-.23h.6c.23,0,.41.08.51.23s.13.36.09.61l-2.08,10.6c-.28,1.42-.38,2.62-.3,3.59.08.98.42,1.7,1.02,2.19s1.54.72,2.84.72c1.76,0,3.31-.58,4.63-1.73,1.33-1.15,2.19-2.74,2.59-4.77l2.08-10.6c.05-.25.16-.46.33-.61.18-.15.38-.23.62-.23h.6c.23,0,.4.08.51.23.11.15.13.36.09.61l-3.56,18.09c-.05.25-.15.46-.32.61-.17.15-.37.23-.6.23h-.6c-.23,0-.41-.08-.53-.23-.12-.15-.15-.35-.11-.61l.35-1.79c-.54.58-1.08,1.1-1.6,1.56-.53.46-1.14.81-1.83,1.06s-1.58.38-2.66.38Z"/><path class="cls-6" d="M423,204.71c-1.53,0-2.81-.35-3.86-1.04s-1.79-1.7-2.22-3.02c-.43-1.32-.5-2.88-.19-4.67.07-.38.16-.89.28-1.52s.22-1.14.32-1.52c.61-2.71,1.69-4.85,3.24-6.4,1.55-1.56,3.57-2.34,6.06-2.34,1.29,0,2.36.19,3.21.57.85.38,1.51.89,1.99,1.52.48.63.8,1.31.97,2.03.16.72.21,1.42.14,2.11-.02.25-.1.46-.23.61-.13.15-.3.23-.51.23h-.67c-.23,0-.42-.06-.55-.17-.13-.11-.18-.32-.16-.63.05-1.44-.31-2.48-1.07-3.12-.76-.63-1.8-.95-3.12-.95-1.6,0-3.06.53-4.39,1.58-1.33,1.05-2.26,2.77-2.8,5.15-.1.38-.19.82-.28,1.33-.09.51-.18.95-.25,1.33-.38,2.38-.19,4.1.56,5.15.75,1.05,1.93,1.58,3.52,1.58,1.25,0,2.41-.29,3.51-.85,1.09-.57,1.98-1.58,2.66-3.02.16-.33.3-.54.42-.65.12-.1.29-.15.53-.15h.63c.21,0,.37.08.48.23.11.15.12.36.05.61-.19.68-.49,1.38-.92,2.09-.42.71-.97,1.36-1.64,1.96-.67.6-1.48,1.08-2.43,1.44-.95.37-2.05.55-3.29.55Z"/><path class="cls-6" d="M441.86,204.71c-1.53,0-2.81-.35-3.86-1.04s-1.79-1.7-2.22-3.02c-.43-1.32-.5-2.88-.19-4.67.07-.38.16-.89.28-1.52s.22-1.14.32-1.52c.61-2.71,1.69-4.85,3.24-6.4,1.55-1.56,3.57-2.34,6.06-2.34,1.29,0,2.36.19,3.21.57.85.38,1.51.89,1.99,1.52.48.63.8,1.31.97,2.03.16.72.21,1.42.14,2.11-.02.25-.1.46-.23.61-.13.15-.3.23-.51.23h-.67c-.23,0-.42-.06-.55-.17-.13-.11-.18-.32-.16-.63.05-1.44-.31-2.48-1.07-3.12-.76-.63-1.8-.95-3.12-.95-1.6,0-3.06.53-4.39,1.58-1.33,1.05-2.26,2.77-2.8,5.15-.1.38-.19.82-.28,1.33-.09.51-.18.95-.25,1.33-.38,2.38-.19,4.1.56,5.15.75,1.05,1.93,1.58,3.52,1.58,1.25,0,2.41-.29,3.51-.85,1.09-.57,1.98-1.58,2.66-3.02.16-.33.3-.54.42-.65.12-.1.29-.15.53-.15h.63c.21,0,.37.08.48.23.11.15.12.36.05.61-.19.68-.49,1.38-.92,2.09-.42.71-.97,1.36-1.64,1.96-.67.6-1.48,1.08-2.43,1.44-.95.37-2.05.55-3.29.55Z"/><path class="cls-6" d="M454.48,204.33c-.23,0-.41-.08-.53-.23-.12-.15-.15-.35-.11-.61l3.56-18.09c.05-.25.16-.46.33-.61.18-.15.38-.23.62-.23h.6c.23,0,.4.08.51.23.11.15.13.36.09.61l-3.56,18.09c-.05.25-.15.46-.32.61-.17.15-.37.23-.6.23h-.6ZM458.78,180.51c-.24,0-.41-.08-.51-.23s-.15-.36-.12-.61l.32-1.44c.05-.25.15-.46.32-.63s.36-.25.6-.25h1.34c.23,0,.42.08.55.25.13.17.17.38.12.63l-.32,1.44c-.03.25-.13.46-.32.61s-.4.23-.63.23h-1.34Z"/><path class="cls-6" d="M468.61,204.71c-1.62,0-2.95-.38-3.98-1.14-1.04-.76-1.75-1.8-2.15-3.12-.4-1.32-.46-2.79-.18-4.41.04-.38.14-.91.28-1.6s.26-1.22.35-1.6c.38-1.65.97-3.12,1.78-4.43s1.84-2.34,3.1-3.1c1.26-.76,2.73-1.14,4.42-1.14s3.05.38,4.07,1.14c1.02.76,1.73,1.79,2.11,3.1.39,1.3.44,2.78.16,4.43-.07.38-.17.91-.3,1.6s-.24,1.22-.33,1.6c-.38,1.62-.97,3.09-1.78,4.41s-1.84,2.36-3.1,3.12c-1.26.76-2.74,1.14-4.46,1.14ZM468.61,202.51c1.67,0,3.17-.57,4.49-1.71,1.33-1.14,2.24-2.79,2.73-4.94.09-.38.19-.85.3-1.41.11-.56.2-1.03.27-1.41.35-2.18.16-3.83-.56-4.96s-1.93-1.69-3.6-1.69-3.13.56-4.46,1.69c-1.33,1.13-2.24,2.78-2.73,4.96-.09.38-.2.85-.32,1.41-.12.56-.2,1.03-.25,1.41-.35,2.15-.18,3.8.53,4.94.71,1.14,1.9,1.71,3.6,1.71ZM472.1,181.72c-.38,0-.52-.2-.42-.61.05-.18.14-.34.28-.49l3.07-3.15c.26-.25.48-.43.65-.53s.44-.15.79-.15h1.45c.35,0,.53.19.53.57,0,.28-.09.48-.28.61l-4.51,3.38c-.23.18-.43.29-.58.32-.15.04-.35.06-.58.06h-.39Z"/><path class="cls-6" d="M481.97,204.33c-.24,0-.41-.08-.53-.23-.12-.15-.15-.35-.11-.61l3.56-18.09c.05-.25.16-.46.34-.61s.38-.23.62-.23h.6c.24,0,.41.08.51.23s.13.36.09.61l-.35,1.79c.73-.89,1.61-1.61,2.64-2.17s2.22-.84,3.56-.84c1.79,0,3.15.37,4.11,1.12.95.75,1.56,1.76,1.81,3.04.26,1.28.22,2.73-.11,4.35l-2.15,10.79c-.05.25-.15.46-.32.61-.16.15-.37.23-.6.23h-.6c-.23,0-.41-.08-.53-.23-.12-.15-.15-.35-.11-.61l2.08-10.6c.42-2.15.41-3.77-.04-4.86-.45-1.09-1.63-1.63-3.56-1.63s-3.44.58-4.76,1.73c-1.32,1.15-2.17,2.74-2.57,4.77l-2.08,10.6c-.05.25-.15.46-.32.61-.16.15-.36.23-.6.23h-.6Z"/></svg>