<svg id="Grupo_18" data-name="Grupo 18" xmlns="http://www.w3.org/2000/svg" xmlns:xlink="http://www.w3.org/1999/xlink" width="42" height="38" viewBox="0 0 42 38">
  <defs>
    <clipPath id="clip-path">
      <rect id="Rectángulo_34" data-name="Rectángulo 34" width="42" height="38" fill="none"/>
    </clipPath>
  </defs>
  <g id="Grupo_17" data-name="Grupo 17" clip-path="url(#clip-path)">
    <path id="Trazado_3" data-name="Trazado 3" d="M10.873.018c3.965-.233,7.4,1.821,10.119,4.511a18,18,0,0,1,4.634-3.376,11.49,11.49,0,0,1,16.367,11c-.352,10.4-9,18.8-17.115,24.127-2.006,1.316-3.572,2.469-6,1.117-1-.558-2.085-1.319-3.036-1.976C8.316,30.223.695,22.415.031,12.757A11.64,11.64,0,0,1,10.873.018M11.4,4.5a7.111,7.111,0,0,0-6.9,7.724c.372,8.717,8.661,16.192,15.484,20.555a9.839,9.839,0,0,0,1.024.613c5.327-3.347,10.627-7.52,13.852-13.03,2.6-4.442,4.6-11.585-.792-14.84C30.218,3.2,26.549,5.19,23.779,8.082c-.945.986-1.551,2.332-3.2,2.024-1.007-.188-1.3-.835-1.906-1.511C16.9,6.623,14.208,4.424,11.4,4.5" transform="translate(0 0)" fill="#161615"/>
  </g>
</svg>
