<svg xmlns="http://www.w3.org/2000/svg" xmlns:xlink="http://www.w3.org/1999/xlink" width="81.719" height="81.705" viewBox="0 0 81.719 81.705">
  <defs>
    <clipPath id="clip-path">
      <rect id="Rectángulo_59" data-name="Rectángulo 59" width="81.719" height="81.705" transform="translate(0 0)" fill="none"/>
    </clipPath>
  </defs>
  <g id="Grupo_116" data-name="Grupo 116" transform="translate(0 0)">
    <g id="Grupo_115" data-name="Grupo 115" clip-path="url(#clip-path)">
      <path id="Trazado_55" data-name="Trazado 55" d="M11,.065,69.976,0A13.321,13.321,0,0,1,81.719,11.715V69.706a13.26,13.26,0,0,1-12,12H12a13.26,13.26,0,0,1-12-12L.014,11.729A13.369,13.369,0,0,1,11,.065M27.183,14.9A14.241,14.241,0,0,0,14.83,27.623c-.685,8.661.53,18.214.013,26.971.877,6.254,6.19,11.7,12.539,12.267,8.591.764,18.251-.558,26.955,0a14.39,14.39,0,0,0,12.54-12c-.811-8.753,1.1-19.533,0-28.034A14.4,14.4,0,0,0,54.307,14.86c-8.61-.81-18.4.472-27.124.04" fill="#33586a"/>
      <path id="Trazado_56" data-name="Trazado 56" d="M27.182,14.9c8.729.432,18.514-.85,27.124-.04A14.4,14.4,0,0,1,66.871,26.83c1.1,8.5-.806,19.281,0,28.034a14.389,14.389,0,0,1-12.539,12c-8.705-.558-18.365.764-26.955,0C21.033,66.3,15.72,60.849,14.843,54.594c.516-8.757-.7-18.31-.013-26.971A14.241,14.241,0,0,1,27.182,14.9m.266,4.579a9.819,9.819,0,0,0-8,7.907c.589,8.525-.868,18.29-.019,26.668a9.784,9.784,0,0,0,8.48,8.237c8.343.721,17.71-.556,26.162-.012a9.787,9.787,0,0,0,8.392-9.347c.268-7.293.3-17.117-.058-24.389-.238-4.774-3.533-8.056-8.084-9.111-8.4.712-18.693-1.061-26.871.047" fill="#fff"/>
      <path id="Trazado_57" data-name="Trazado 57" d="M27.448,19.479c8.179-1.108,18.47.665,26.871-.047,4.551,1.055,7.847,4.338,8.085,9.111.362,7.272.325,17.1.058,24.39a9.788,9.788,0,0,1-8.393,9.346c-8.452-.544-17.819.733-26.161.012a9.785,9.785,0,0,1-8.481-8.237c-.848-8.378.608-18.142.02-26.667a9.817,9.817,0,0,1,8-7.908m26.41,4.572c-2.668.612-2.771,5.4.5,5.862,4.751.664,4.8-7.078-.5-5.862m-15.08,2.714c-7.223.871-12.727,8.255-12.041,15.4a14.266,14.266,0,0,0,25.307,7.577c8.161-10.158-.457-24.518-13.266-22.973" fill="#33586a"/>
      <path id="Trazado_58" data-name="Trazado 58" d="M38.778,26.765C51.587,25.22,60.205,39.58,52.044,49.737a14.266,14.266,0,0,1-25.307-7.576c-.686-7.141,4.818-14.525,12.041-15.4m.8,4.848C27.858,33.192,29.252,51.9,42.724,50.125c11.041-1.451,9.337-20.193-3.143-18.512" fill="#fff"/>
      <path id="Trazado_59" data-name="Trazado 59" d="M53.858,24.051c5.3-1.216,5.255,6.525.5,5.861-3.277-.458-3.173-5.249-.5-5.861" fill="#fff"/>
      <path id="Trazado_60" data-name="Trazado 60" d="M39.581,31.613c12.48-1.681,14.184,17.061,3.143,18.512C29.252,51.9,27.858,33.192,39.581,31.613" fill="#33586a"/>
    </g>
  </g>
</svg>
