<svg xmlns="http://www.w3.org/2000/svg" xmlns:xlink="http://www.w3.org/1999/xlink" width="81.708" height="81.705" viewBox="0 0 81.708 81.705">
  <defs>
    <clipPath id="clip-path">
      <rect id="Rect치ngulo_62" data-name="Rect치ngulo 62" width="81.708" height="81.705" transform="translate(0 0)" fill="none"/>
    </clipPath>
  </defs>
  <g id="Grupo_120" data-name="Grupo 120" transform="translate(0 0)">
    <g id="Grupo_119" data-name="Grupo 119" clip-path="url(#clip-path)">
      <path id="Trazado_63" data-name="Trazado 63" d="M11.269.065,69.977,0A13.29,13.29,0,0,1,81.708,11.188l-.119,60.005a13.4,13.4,0,0,1-11.341,10.5l-58.518.012A13.292,13.292,0,0,1,0,69.168l.015-56.9A13.261,13.261,0,0,1,11.269.065M21.51,17.047c-6.364,1.21-5.43,12.285,2.569,10.926,6.542-1.112,5.377-12.437-2.569-10.926M63.645,63.63V40.845c0-3.617-5.116-7.957-8.564-8.423-5.065-.687-9.528.073-13.007,3.974V32.621H32.906V63.63h8.763l.405-.405V45.7A18.83,18.83,0,0,1,43.2,43.317c2.21-3.293,7.873-3.674,10.156-.269a18.764,18.764,0,0,1,1.124,2.381v17.8l.4.405ZM27.513,32.621H18.345V63.629h9.168Z" fill="#33586a"/>
      <path id="Trazado_64" data-name="Trazado 64" d="M63.645,63.63H54.882l-.4-.4V45.43a18.83,18.83,0,0,0-1.123-2.382c-2.284-3.4-7.947-3.023-10.156.27A18.9,18.9,0,0,0,42.074,45.7V63.226l-.4.4H32.906V32.622h9.168V36.4c3.48-3.9,7.943-4.661,13.008-3.975,3.447.467,8.563,4.806,8.563,8.424Z" fill="#fff"/>
      <rect id="Rect치ngulo_61" data-name="Rect치ngulo 61" width="9.168" height="31.008" transform="translate(18.345 32.622)" fill="#fff"/>
      <path id="Trazado_65" data-name="Trazado 65" d="M21.51,17.047c7.945-1.511,9.11,9.814,2.569,10.926-8,1.359-8.933-9.716-2.569-10.926" fill="#fff"/>
    </g>
  </g>
</svg>
