<svg xmlns="http://www.w3.org/2000/svg" xmlns:xlink="http://www.w3.org/1999/xlink" width="30.002" height="31.962" viewBox="0 0 30.002 31.962">
  <defs>
    <clipPath id="clip-path">
      <rect id="Rectángulo_52" data-name="Rectángulo 52" width="30.002" height="31.962" fill="none"/>
    </clipPath>
  </defs>
  <g id="Foot_menu_-_ICON_-_location" data-name="Foot menu - ICON - location" transform="translate(0 0)">
    <g id="Grupo_101" data-name="Grupo 101" transform="translate(0 0)" clip-path="url(#clip-path)">
      <path id="Trazado_45" data-name="Trazado 45" d="M8.679,43.562c-11.914-1.516-11.326-9.135.31-10.13,1.111.8.4,1.04-.476,1.425-1.32.578-7.993,1.58-7.426,3.951,3.718,4.609,25.095,4.2,27.541.344,1.581-2.489-5.641-3.752-6.663-4.162s-1.546.063-1.263-1.547c11.6.67,12.943,8.552.63,10.119a77.711,77.711,0,0,1-12.653,0" transform="translate(0 -11.858)" fill="#fff"/>
      <path id="Trazado_46" data-name="Trazado 46" d="M16.419.219c7.1-1.46,11.828,4.617,10.773,11.407-.372,2.393-6.721,15.868-8.392,16.282-1.091.27-5.457-7.087-6.116-8.427-3.06-6.22-5.8-17.3,3.736-19.261m.651,1.253c-3.882.632-6.36,4.595-6.19,8.375.121,2.7,5.644,16.1,7.92,15.53,1.516-.377,6.6-11.8,6.994-13.887C26.866,5.725,23.214.47,17.07,1.471" transform="translate(-3.484 0)" fill="#fff"/>
      <path id="Trazado_47" data-name="Trazado 47" d="M25.259,12.363A4.456,4.456,0,1,1,20.8,7.907a4.455,4.455,0,0,1,4.456,4.456m-1.349,0A3.106,3.106,0,1,0,20.8,15.467a3.106,3.106,0,0,0,3.106-3.105" transform="translate(-5.798 -2.804)" fill="#fff"/>
    </g>
  </g>
</svg>
