<svg id="Foot_menu_-_ICON_-_phone" data-name="Foot menu - ICON - phone" xmlns="http://www.w3.org/2000/svg" xmlns:xlink="http://www.w3.org/1999/xlink" width="30.002" height="30.064" viewBox="0 0 30.002 30.064">
  <defs>
    <clipPath id="clip-path">
      <rect id="Rectángulo_53" data-name="Rectángulo 53" width="30.002" height="30.064" fill="none"/>
    </clipPath>
  </defs>
  <g id="Grupo_103" data-name="Grupo 103" transform="translate(0 0)" clip-path="url(#clip-path)">
    <path id="Trazado_48" data-name="Trazado 48" d="M5.352.015C7.8-.35,12.022,6.332,11.7,8.411c-.251,1.617-2.138,2.143-1.047,4.485.184.4,5.675,5.937,6.121,6.2,3.005,1.785,3.631-1.419,6.695-.582.872.238,6,3.885,6.351,4.666,1.114,2.449-3.163,6.722-5.482,6.874C17.253,30.521-.45,12.81.008,5.726.133,3.8,3.488.294,5.352.015M5.89,1.336c-6.317,3.048-4.4,6.617-1.318,11.515,3.049,4.844,13.051,14.475,18.718,15.516,2.9.533,4-2.068,5.439-4.192-.032-.365-5.554-4.011-6.051-4.12-1.661-.365-3.234,2.443-5.5,1.423-.53-.239-7.951-7.651-8.273-8.2-1.648-2.806,1.512-4.038,1.1-5.892C9.9,6.89,6.254,1.367,5.89,1.336" transform="translate(0 0)" fill="#fff"/>
  </g>
</svg>
