<svg id="Foot_menu_-_ICON_-_phone" data-name="Foot menu - ICON - phone" xmlns="http://www.w3.org/2000/svg" xmlns:xlink="http://www.w3.org/1999/xlink" width="33.055" height="33.124" viewBox="0 0 33.055 33.124">
  <defs>
    <clipPath id="clip-path">
      <rect id="Rectángulo_53" data-name="Rectángulo 53" width="33.055" height="33.124" fill="#bad1e0"/>
    </clipPath>
  </defs>
  <g id="Grupo_103" data-name="Grupo 103" transform="translate(0 0)" clip-path="url(#clip-path)">
    <path id="Trazado_48" data-name="Trazado 48" d="M5.9.016c2.692-.4,7.348,6.96,6.994,9.25-.276,1.782-2.355,2.361-1.153,4.941.2.435,6.252,6.541,6.744,6.833,3.311,1.967,4-1.564,7.376-.641.961.262,6.606,4.28,7,5.141,1.227,2.7-3.485,7.406-6.04,7.573C19.008,33.627-.5,14.113.009,6.309.147,4.19,3.843.323,5.9.016m.592,1.455C-.471,4.83,1.639,8.761,5.037,14.158,8.4,19.5,19.416,30.106,25.659,31.253c3.2.587,4.41-2.278,5.992-4.619-.035-.4-6.119-4.419-6.666-4.539-1.83-.4-3.563,2.692-6.06,1.567-.584-.263-8.76-8.43-9.115-9.033C8,11.537,11.477,10.18,11.028,8.138c-.121-.547-4.138-6.632-4.539-6.666" transform="translate(0 0)" fill="#bad1e0"/>
  </g>
</svg>
