<svg id="Grupo_136" data-name="Grupo 136" xmlns="http://www.w3.org/2000/svg" xmlns:xlink="http://www.w3.org/1999/xlink" width="143.263" height="199.052" viewBox="0 0 143.263 199.052">
  <defs>
    <clipPath id="clip-path">
      <rect id="Rectángulo_67" data-name="Rectángulo 67" width="143.263" height="199.052" fill="none"/>
    </clipPath>
  </defs>
  <g id="Grupo_135" data-name="Grupo 135" clip-path="url(#clip-path)">
    <path id="Trazado_68" data-name="Trazado 68" d="M67.171.127c41.366-2.4,73.875,29.569,75.987,66.612,2.11,37-27.974,82.393-50.44,111.768-3.942,5.155-9.71,13.421-14.312,17.708a9.592,9.592,0,0,1-8.661,2.668c-3.852-.669-5.789-3.6-8.046-6.2C38.106,165.524,5.782,117.264.76,82.67-4.962,43.269,22.087,2.739,67.171.127m1.8,31.616c-26.85,1.843-42.708,27.68-31,50.111,13.08,25.057,52.814,25.506,66.742.928,13.672-24.125-6.259-53.063-35.744-51.039" transform="translate(0 0)" fill="#56859b"/>
    <path id="Trazado_69" data-name="Trazado 69" d="M115.233,88.089c35.591-2.443,59.651,32.488,43.147,61.61-16.812,29.668-64.777,29.126-80.566-1.12-14.135-27.076,5.008-58.265,37.419-60.49" transform="translate(-46.805 -56.325)" fill="#fff"/>
  </g>
</svg>
