<svg xmlns="http://www.w3.org/2000/svg" width="38.427" height="47.571" viewBox="0 0 38.427 47.571">
  <path id="Trazado_73" data-name="Trazado 73" d="M19.375,16.855,7.139,15.642c-.047.284.348.276.552.333,2.973.828,6.2,1.246,9.191,2.037l.294.537-.042,38.445c-.156.255-.316.118-.5.11-.875-.045-2.173-.5-3.121-.656-3.66-.587-7.341-1.058-11-1.66l-1.161-.818.084-43.54A2.765,2.765,0,0,1,2.877,9.7c2.481-.335,6.255.136,8.876.131,6.323-.01,17.106-1.1,22.354,2.68a8.349,8.349,0,0,1,3.5,6.191,86.5,86.5,0,0,1,0,11.289c-.294,3.387-3.4,5.751-6.337,6.918l-.2.384,8.553,15.593c.439,1.246-.1,1.822-1.321,1.933-3.176.29-6.83-.2-10.056-.05-1.277-.513-1.781-1.846-2.391-2.95-2.3-4.158-4.2-8.571-6.407-12.78Zm-3.89,18.712a1.067,1.067,0,1,0-1.067,1.067,1.067,1.067,0,0,0,1.067-1.067" transform="translate(-1.349 -9.576)" fill="#213245"/>
</svg>
